<svg xmlns="http://www.w3.org/2000/svg"
    viewBox="0 0 72 125" 
    version="1.1" 
    x="0px" y="0px">
    <title>needle_thread</title>
    <desc>Created with Sketch.</desc>
    <path d="M53.8551465,32.1025299 
    L56.8144104,28.3348014 
    C57.4334641,27.5466235 
    57.2916057,26.4225833 
    56.4972888,25.8245339 
    L56.4282591,25.7725607 
    C55.6437242,25.1818763 
    54.5135379,25.3479341 
    53.9257662,26.1599114 
    L51.7083593,29.2231489 
    C49.1338007,25.5933903 
    47.5704979,22.5947929 
    46.6371421,19.4212031 
    C44.7089745,12.8650615 
    46.3717857,6.8428721 
    52.4741193,0.901722693 
    C52.6821256,0.699210623 
    52.6864391,0.366563825 
    52.4837539,0.158735274 
    C52.2810687,-0.0490932774 
    51.9481374,-0.0534031367 
    51.7401312,0.149108933 
    C45.362371,6.35840993 
    43.5885444,12.7826631 
    45.6280759,19.7174636 
    C46.6250387,23.1073295 
    48.2928896,26.2707094 
    51.0572155,30.1226716 
    L0.924655771,99.3783114 
    C0.336999803,100.190129 
    0.362342012,100.209456 
    0.981517556,99.4211233 
    L53.1858031,32.9547366 
    C54.2627511,34.3329084 
    55.4669884,35.8071654 
    56.8132888,37.409273 
    C64.4537685,46.5015015 
    65.3674926,47.6657672 
    67.0682798,51.0644355 
    C76.8239262,70.5590599 
    64.4616662,91.2798871 
    42.7850795,91.2798871 
    C42.4946524,91.2798871 
    42.2592147,91.5151236 
    42.2592147,91.8053026 
    C42.2592147,92.0954816 
    42.4946524,92.3307182 
    42.7850795,92.3307182 
    C65.2527359,92.3307182 
    78.1102494,70.7797788 
    68.0089753,50.5944896 
    C66.2525385,47.0846171 
    65.3405349,45.9225437 
    57.6187568,36.7335695 
    C56.2120188,35.0595406 
    54.9632376,33.528029 
    53.8551465,32.1025299 
    Z M52.6626301,32.2797082 
    C51.1645914,34.1129208 49.8210137,35.3067555 49.4835351,35.0526644 C49.1224804,34.7808226 50.0384633,32.9461443 51.566367,30.8231684 C51.9152698,31.297368 52.2804431,31.7823486 52.6626301,32.2797082 Z M53.3346065,31.4270804 C53.3621426,31.3908861 53.3896881,31.3545222 53.4172378,31.3179937 C55.196283,28.9591379 56.3195066,26.8067458 55.9260278,26.5104916 C55.5496888,26.2271422 53.9222084,27.7443712 52.2245964,29.9409237 C52.5767938,30.424153 52.9465175,30.9189474 53.3346065,31.4270804 Z" 
    fill="#000000"/>
</svg>